<svg id="visual" viewBox="0 0 900 600" width="900" height="600" xmlns="http://www.w3.org/2000/svg" xmlns:xlink="http://www.w3.org/1999/xlink" version="1.1"><g stroke-width="1" stroke-linejoin="bevel"><path d="M476.9 308L399.1 380L483.9 371Z" fill="#00101c" stroke="#00101c"></path><path d="M476.9 308L397.1 300L399.1 380Z" fill="#19435d" stroke="#19435d"></path><path d="M399.1 380L420.1 453L483.9 371Z" fill="#112e42" stroke="#112e42"></path><path d="M420.1 453L479.9 451L483.9 371Z" fill="#15384f" stroke="#15384f"></path><path d="M397.1 300L329.3 388L399.1 380Z" fill="#19435d" stroke="#19435d"></path><path d="M399.1 380L317.3 447L420.1 453Z" fill="#277297" stroke="#277297"></path><path d="M562.7 296L490.9 239L476.9 308Z" fill="#0c2435" stroke="#0c2435"></path><path d="M476.9 308L420.1 220L397.1 300Z" fill="#19435d" stroke="#19435d"></path><path d="M562.7 296L476.9 308L483.9 371Z" fill="#277297" stroke="#277297"></path><path d="M490.9 239L420.1 220L476.9 308Z" fill="#205a7a" stroke="#205a7a"></path><path d="M397.1 300L320.3 292L329.3 388Z" fill="#277297" stroke="#277297"></path><path d="M334.3 219L320.3 292L397.1 300Z" fill="#00101c" stroke="#00101c"></path><path d="M570.7 378L562.7 296L483.9 371Z" fill="#112e42" stroke="#112e42"></path><path d="M479.9 451L570.7 378L483.9 371Z" fill="#081a28" stroke="#081a28"></path><path d="M246.5 447L317.3 447L329.3 388Z" fill="#19435d" stroke="#19435d"></path><path d="M329.3 388L317.3 447L399.1 380Z" fill="#277297" stroke="#277297"></path><path d="M420.1 220L334.3 219L397.1 300Z" fill="#246688" stroke="#246688"></path><path d="M479.9 451L583.7 441L570.7 378Z" fill="#19435d" stroke="#19435d"></path><path d="M666.5 305L585.7 222L562.7 296Z" fill="#0c2435" stroke="#0c2435"></path><path d="M420.1 453L481.9 514L479.9 451Z" fill="#0c2435" stroke="#0c2435"></path><path d="M479.9 451L566.7 514L583.7 441Z" fill="#15384f" stroke="#15384f"></path><path d="M401.1 535L481.9 514L420.1 453Z" fill="#1d4e6b" stroke="#1d4e6b"></path><path d="M488.9 153L415.1 163L420.1 220Z" fill="#0c2435" stroke="#0c2435"></path><path d="M420.1 220L415.1 163L334.3 219Z" fill="#19435d" stroke="#19435d"></path><path d="M488.9 153L420.1 220L490.9 239Z" fill="#112e42" stroke="#112e42"></path><path d="M639.5 362L562.7 296L570.7 378Z" fill="#112e42" stroke="#112e42"></path><path d="M562.7 296L585.7 222L490.9 239Z" fill="#246688" stroke="#246688"></path><path d="M317.3 447L401.1 535L420.1 453Z" fill="#246688" stroke="#246688"></path><path d="M565.7 159L488.9 153L490.9 239Z" fill="#081a28" stroke="#081a28"></path><path d="M583.7 441L639.5 362L570.7 378Z" fill="#246688" stroke="#246688"></path><path d="M230.5 297L230.5 361L320.3 292Z" fill="#1d4e6b" stroke="#1d4e6b"></path><path d="M320.3 292L230.5 361L329.3 388Z" fill="#1d4e6b" stroke="#1d4e6b"></path><path d="M317.3 447L325.3 531L401.1 535Z" fill="#297ea6" stroke="#297ea6"></path><path d="M500.9 600L566.7 514L481.9 514Z" fill="#205a7a" stroke="#205a7a"></path><path d="M481.9 514L566.7 514L479.9 451Z" fill="#15384f" stroke="#15384f"></path><path d="M583.7 441L642.5 463L639.5 362Z" fill="#205a7a" stroke="#205a7a"></path><path d="M247.5 237L230.5 297L320.3 292Z" fill="#112e42" stroke="#112e42"></path><path d="M230.5 361L246.5 447L329.3 388Z" fill="#1d4e6b" stroke="#1d4e6b"></path><path d="M246.5 447L325.3 531L317.3 447Z" fill="#277297" stroke="#277297"></path><path d="M334.3 219L247.5 237L320.3 292Z" fill="#15384f" stroke="#15384f"></path><path d="M250.5 139L247.5 237L334.3 219Z" fill="#0c2435" stroke="#0c2435"></path><path d="M402.1 86L339.3 143L415.1 163Z" fill="#15384f" stroke="#15384f"></path><path d="M415.1 163L339.3 143L334.3 219Z" fill="#246688" stroke="#246688"></path><path d="M585.7 222L565.7 159L490.9 239Z" fill="#081a28" stroke="#081a28"></path><path d="M657.5 160L565.7 159L585.7 222Z" fill="#1d4e6b" stroke="#1d4e6b"></path><path d="M639.5 362L666.5 305L562.7 296Z" fill="#297ea6" stroke="#297ea6"></path><path d="M566.7 514L642.5 463L583.7 441Z" fill="#00101c" stroke="#00101c"></path><path d="M733.4 383L721.4 290L666.5 305Z" fill="#112e42" stroke="#112e42"></path><path d="M325.3 531L404.1 600L401.1 535Z" fill="#277297" stroke="#277297"></path><path d="M401.1 535L404.1 600L481.9 514Z" fill="#081a28" stroke="#081a28"></path><path d="M482.9 76L402.1 86L488.9 153Z" fill="#19435d" stroke="#19435d"></path><path d="M488.9 153L402.1 86L415.1 163Z" fill="#297ea6" stroke="#297ea6"></path><path d="M666.5 305L664.5 211L585.7 222Z" fill="#277297" stroke="#277297"></path><path d="M404.1 600L500.9 600L481.9 514Z" fill="#00101c" stroke="#00101c"></path><path d="M566.7 514L658.5 535L642.5 463Z" fill="#112e42" stroke="#112e42"></path><path d="M583.7 76L482.9 76L565.7 159Z" fill="#277297" stroke="#277297"></path><path d="M565.7 159L482.9 76L488.9 153Z" fill="#00101c" stroke="#00101c"></path><path d="M246.5 447L234.5 526L325.3 531Z" fill="#112e42" stroke="#112e42"></path><path d="M325.3 531L314.3 600L404.1 600Z" fill="#19435d" stroke="#19435d"></path><path d="M177.6 451L234.5 526L246.5 447Z" fill="#277297" stroke="#277297"></path><path d="M158.6 224L167.6 293L247.5 237Z" fill="#19435d" stroke="#19435d"></path><path d="M247.5 237L167.6 293L230.5 297Z" fill="#297ea6" stroke="#297ea6"></path><path d="M230.5 297L167.6 293L230.5 361Z" fill="#081a28" stroke="#081a28"></path><path d="M230.5 361L177.6 451L246.5 447Z" fill="#081a28" stroke="#081a28"></path><path d="M250.5 139L334.3 219L339.3 143Z" fill="#277297" stroke="#277297"></path><path d="M167.6 293L162.6 365L230.5 361Z" fill="#1d4e6b" stroke="#1d4e6b"></path><path d="M331.3 61L250.5 139L339.3 143Z" fill="#00101c" stroke="#00101c"></path><path d="M162.6 365L177.6 451L230.5 361Z" fill="#246688" stroke="#246688"></path><path d="M245.5 600L314.3 600L325.3 531Z" fill="#246688" stroke="#246688"></path><path d="M500.9 600L566.7 600L566.7 514Z" fill="#081a28" stroke="#081a28"></path><path d="M664.5 211L657.5 160L585.7 222Z" fill="#081a28" stroke="#081a28"></path><path d="M733.4 383L666.5 305L639.5 362Z" fill="#205a7a" stroke="#205a7a"></path><path d="M666.5 305L721.4 290L664.5 211Z" fill="#00101c" stroke="#00101c"></path><path d="M664.5 211L743.4 162L657.5 160Z" fill="#0c2435" stroke="#0c2435"></path><path d="M641.5 600L658.5 535L566.7 514Z" fill="#1d4e6b" stroke="#1d4e6b"></path><path d="M642.5 463L733.4 383L639.5 362Z" fill="#277297" stroke="#277297"></path><path d="M750.4 442L733.4 383L642.5 463Z" fill="#0c2435" stroke="#0c2435"></path><path d="M402.1 86L331.3 61L339.3 143Z" fill="#277297" stroke="#277297"></path><path d="M405.1 0L331.3 61L402.1 86Z" fill="#297ea6" stroke="#297ea6"></path><path d="M164.6 156L158.6 224L247.5 237Z" fill="#15384f" stroke="#15384f"></path><path d="M167.6 293L93.8 296L162.6 365Z" fill="#112e42" stroke="#112e42"></path><path d="M164.6 156L247.5 237L250.5 139Z" fill="#19435d" stroke="#19435d"></path><path d="M657.5 160L583.7 76L565.7 159Z" fill="#19435d" stroke="#19435d"></path><path d="M482.9 76L405.1 0L402.1 86Z" fill="#1d4e6b" stroke="#1d4e6b"></path><path d="M158.6 600L245.5 600L234.5 526Z" fill="#0c2435" stroke="#0c2435"></path><path d="M234.5 526L245.5 600L325.3 531Z" fill="#112e42" stroke="#112e42"></path><path d="M177.6 451L171.6 524L234.5 526Z" fill="#0c2435" stroke="#0c2435"></path><path d="M69.8 439L171.6 524L177.6 451Z" fill="#15384f" stroke="#15384f"></path><path d="M721.4 290L737.4 213L664.5 211Z" fill="#297ea6" stroke="#297ea6"></path><path d="M657.5 160L662.5 76L583.7 76Z" fill="#277297" stroke="#277297"></path><path d="M832.2 232L737.4 213L721.4 290Z" fill="#081a28" stroke="#081a28"></path><path d="M566.7 600L641.5 600L566.7 514Z" fill="#277297" stroke="#277297"></path><path d="M747.4 510L750.4 442L642.5 463Z" fill="#1d4e6b" stroke="#1d4e6b"></path><path d="M747.4 510L642.5 463L658.5 535Z" fill="#19435d" stroke="#19435d"></path><path d="M733.4 383L812.2 362L721.4 290Z" fill="#112e42" stroke="#112e42"></path><path d="M170.6 86L164.6 156L250.5 139Z" fill="#277297" stroke="#277297"></path><path d="M331.3 61L252.5 65L250.5 139Z" fill="#0c2435" stroke="#0c2435"></path><path d="M487.9 0L405.1 0L482.9 76Z" fill="#246688" stroke="#246688"></path><path d="M331.3 61L326.3 0L252.5 65Z" fill="#1d4e6b" stroke="#1d4e6b"></path><path d="M93.8 215L93.8 296L158.6 224Z" fill="#205a7a" stroke="#205a7a"></path><path d="M158.6 224L93.8 296L167.6 293Z" fill="#081a28" stroke="#081a28"></path><path d="M162.6 365L69.8 439L177.6 451Z" fill="#277297" stroke="#277297"></path><path d="M583.7 76L487.9 0L482.9 76Z" fill="#19435d" stroke="#19435d"></path><path d="M725.4 76L662.5 76L657.5 160Z" fill="#205a7a" stroke="#205a7a"></path><path d="M583.7 76L582.7 0L487.9 0Z" fill="#1d4e6b" stroke="#1d4e6b"></path><path d="M724.4 600L747.4 510L658.5 535Z" fill="#081a28" stroke="#081a28"></path><path d="M807.2 145L743.4 162L737.4 213Z" fill="#00101c" stroke="#00101c"></path><path d="M737.4 213L743.4 162L664.5 211Z" fill="#246688" stroke="#246688"></path><path d="M93.8 296L79.8 362L162.6 365Z" fill="#15384f" stroke="#15384f"></path><path d="M405.1 0L326.3 0L331.3 61Z" fill="#081a28" stroke="#081a28"></path><path d="M164.6 156L93.8 215L158.6 224Z" fill="#19435d" stroke="#19435d"></path><path d="M0 296L0 382L79.8 362Z" fill="#277297" stroke="#277297"></path><path d="M95.8 135L93.8 215L164.6 156Z" fill="#1d4e6b" stroke="#1d4e6b"></path><path d="M171.6 0L170.6 86L252.5 65Z" fill="#19435d" stroke="#19435d"></path><path d="M252.5 65L170.6 86L250.5 139Z" fill="#081a28" stroke="#081a28"></path><path d="M654.5 0L582.7 0L583.7 76Z" fill="#1d4e6b" stroke="#1d4e6b"></path><path d="M820.2 445L812.2 362L750.4 442Z" fill="#297ea6" stroke="#297ea6"></path><path d="M750.4 442L812.2 362L733.4 383Z" fill="#19435d" stroke="#19435d"></path><path d="M72.8 535L158.6 600L171.6 524Z" fill="#297ea6" stroke="#297ea6"></path><path d="M171.6 524L158.6 600L234.5 526Z" fill="#0c2435" stroke="#0c2435"></path><path d="M0 382L69.8 439L79.8 362Z" fill="#277297" stroke="#277297"></path><path d="M79.8 362L69.8 439L162.6 365Z" fill="#1d4e6b" stroke="#1d4e6b"></path><path d="M641.5 600L724.4 600L658.5 535Z" fill="#15384f" stroke="#15384f"></path><path d="M747.4 510L820.2 445L750.4 442Z" fill="#205a7a" stroke="#205a7a"></path><path d="M743.4 162L725.4 76L657.5 160Z" fill="#0c2435" stroke="#0c2435"></path><path d="M662.5 76L654.5 0L583.7 76Z" fill="#205a7a" stroke="#205a7a"></path><path d="M807.2 145L725.4 76L743.4 162Z" fill="#277297" stroke="#277297"></path><path d="M821.2 520L820.2 445L747.4 510Z" fill="#0c2435" stroke="#0c2435"></path><path d="M900 376L831.2 293L812.2 362Z" fill="#15384f" stroke="#15384f"></path><path d="M812.2 362L831.2 293L721.4 290Z" fill="#19435d" stroke="#19435d"></path><path d="M326.3 0L236.5 0L252.5 65Z" fill="#246688" stroke="#246688"></path><path d="M70.8 70L95.8 135L170.6 86Z" fill="#0c2435" stroke="#0c2435"></path><path d="M170.6 86L95.8 135L164.6 156Z" fill="#277297" stroke="#277297"></path><path d="M0 296L79.8 362L93.8 296Z" fill="#205a7a" stroke="#205a7a"></path><path d="M725.4 76L654.5 0L662.5 76Z" fill="#112e42" stroke="#112e42"></path><path d="M831.2 293L832.2 232L721.4 290Z" fill="#297ea6" stroke="#297ea6"></path><path d="M69.8 439L72.8 535L171.6 524Z" fill="#081a28" stroke="#081a28"></path><path d="M832.2 232L807.2 145L737.4 213Z" fill="#1d4e6b" stroke="#1d4e6b"></path><path d="M725.4 76L734.4 0L654.5 0Z" fill="#277297" stroke="#277297"></path><path d="M811.2 600L821.2 520L747.4 510Z" fill="#205a7a" stroke="#205a7a"></path><path d="M820.2 445L900 376L812.2 362Z" fill="#15384f" stroke="#15384f"></path><path d="M236.5 0L171.6 0L252.5 65Z" fill="#081a28" stroke="#081a28"></path><path d="M72.8 535L83.8 600L158.6 600Z" fill="#00101c" stroke="#00101c"></path><path d="M69.8 439L0 520L72.8 535Z" fill="#081a28" stroke="#081a28"></path><path d="M72.8 535L0 600L83.8 600Z" fill="#00101c" stroke="#00101c"></path><path d="M0 296L93.8 296L0 235Z" fill="#297ea6" stroke="#297ea6"></path><path d="M0 235L93.8 215L0 164Z" fill="#297ea6" stroke="#297ea6"></path><path d="M0 235L93.8 296L93.8 215Z" fill="#0c2435" stroke="#0c2435"></path><path d="M0 382L0 437L69.8 439Z" fill="#00101c" stroke="#00101c"></path><path d="M0 164L93.8 215L95.8 135Z" fill="#246688" stroke="#246688"></path><path d="M724.4 600L811.2 600L747.4 510Z" fill="#0c2435" stroke="#0c2435"></path><path d="M820.2 80L734.4 0L725.4 76Z" fill="#205a7a" stroke="#205a7a"></path><path d="M91.8 0L70.8 70L170.6 86Z" fill="#19435d" stroke="#19435d"></path><path d="M900 452L900 376L820.2 445Z" fill="#081a28" stroke="#081a28"></path><path d="M831.2 293L900 296L832.2 232Z" fill="#277297" stroke="#277297"></path><path d="M900 151L820.2 80L807.2 145Z" fill="#00101c" stroke="#00101c"></path><path d="M900 452L820.2 445L821.2 520Z" fill="#19435d" stroke="#19435d"></path><path d="M900 376L900 296L831.2 293Z" fill="#205a7a" stroke="#205a7a"></path><path d="M807.2 145L820.2 80L725.4 76Z" fill="#19435d" stroke="#19435d"></path><path d="M900 151L807.2 145L832.2 232Z" fill="#0c2435" stroke="#0c2435"></path><path d="M0 437L0 520L69.8 439Z" fill="#205a7a" stroke="#205a7a"></path><path d="M0 89L0 164L95.8 135Z" fill="#246688" stroke="#246688"></path><path d="M900 523L900 452L821.2 520Z" fill="#0c2435" stroke="#0c2435"></path><path d="M900 296L900 230L832.2 232Z" fill="#081a28" stroke="#081a28"></path><path d="M171.6 0L91.8 0L170.6 86Z" fill="#246688" stroke="#246688"></path><path d="M70.8 70L0 89L95.8 135Z" fill="#19435d" stroke="#19435d"></path><path d="M900 600L900 523L821.2 520Z" fill="#112e42" stroke="#112e42"></path><path d="M900 230L900 151L832.2 232Z" fill="#0c2435" stroke="#0c2435"></path><path d="M820.2 80L820.2 0L734.4 0Z" fill="#205a7a" stroke="#205a7a"></path><path d="M0 0L0 89L70.8 70Z" fill="#112e42" stroke="#112e42"></path><path d="M0 520L0 600L72.8 535Z" fill="#277297" stroke="#277297"></path><path d="M900 69L820.2 0L820.2 80Z" fill="#15384f" stroke="#15384f"></path><path d="M811.2 600L900 600L821.2 520Z" fill="#205a7a" stroke="#205a7a"></path><path d="M900 151L900 69L820.2 80Z" fill="#19435d" stroke="#19435d"></path><path d="M91.8 0L0 0L70.8 70Z" fill="#15384f" stroke="#15384f"></path><path d="M900 69L900 0L820.2 0Z" fill="#15384f" stroke="#15384f"></path></g></svg>